<?xml version="1.0" encoding="utf-8"?>
<!-- Generator: Adobe Illustrator 20.0.0, SVG Export Plug-In . SVG Version: 6.00 Build 0)  -->
<svg version="1.1" id="Layer_1" xmlns="http://www.w3.org/2000/svg" xmlns:xlink="http://www.w3.org/1999/xlink" x="0px" y="0px"
	 viewBox="0 0 594.5 523.9" style="enable-background:new 0 0 594.5 523.9;" xml:space="preserve">
<style type="text/css">
	.st0{enable-background:new    ;}
	.st1{fill:#D6D4D4;}
	.st2{fill:#FF7272;}
</style>
<g>
	<g class="st0">
		<path class="st1" d="M143.3,80c17.2,7.8,32.8,26.2,32.8,48.6v130.8l15.2-2.7l15.2,12.5l-15.2,17.9l-15.2,2.7v13.6
			c0,13.2,11.6,23.2,23.6,29.8l-33.6,39.9c-17.2-8.2-36.8-21.9-36.8-44.3v-30.8L14.1,318.4L143.3,80z M129.3,157.7L64.9,279
			l64.4-11.4V157.7z"/>
		<path class="st1" d="M385.3,105.4v134L286.5,352c0,0-63.6-12.4-63.6-53.2v-134l98.4-116.1C321.3,48.6,385.3,65,385.3,105.4z
			 M298.5,306.3l40-47.1V126.8c0-14.8-15.6-25.6-29.2-32.5l-49.2,58.3l9.6,7.9c0,0,0,86.4,0,113.2
			C269.7,288.5,284.9,299.5,298.5,306.3z"/>
		<path class="st1" d="M523.7,13c17.2,7.8,32.8,26.2,32.8,48.6v130.8l15.2-2.7l15.2,12.5l-15.2,17.9l-15.2,2.7v13.6
			c0,13.2,11.6,23.2,23.6,29.8l-33.6,39.9c-17.2-8.2-36.8-21.9-36.8-44.3V231l-115.2,20.3L523.7,13z M509.7,90.6L445.3,212
			l64.4-11.4V90.6z"/>
	</g>
	<g class="st0">
		<path class="st2" d="M130,71.7c17.2,7.8,32.8,26.2,32.8,48.6v130.8l15.2-2.7l15.2,12.5L178,278.8l-15.2,2.7v13.6
			c0,13.2,11.6,23.2,23.6,29.8l-33.6,39.9c-17.2-8.2-36.8-21.9-36.8-44.3v-30.8L0.8,310.1L130,71.7z M116,149.4L51.6,270.7
			l64.4-11.4V149.4z"/>
		<path class="st2" d="M372,97v134l-98.8,112.6c0,0-63.6-12.4-63.6-53.2v-134L308,40.3C308,40.3,372,56.6,372,97z M285.2,297.9
			l40-47.1V118.5c0-14.8-15.6-25.6-29.2-32.5l-49.2,58.3l9.6,7.9c0,0,0,86.4,0,113.2C256.4,280.2,271.6,291.1,285.2,297.9z"/>
		<path class="st2" d="M510.4,4.6c17.2,7.8,32.8,26.2,32.8,48.6V184l15.2-2.7l15.2,12.5l-15.2,17.9l-15.2,2.7V228
			c0,13.2,11.6,23.2,23.6,29.8l-33.6,39.9c-17.2-8.2-36.8-21.9-36.8-44.3v-30.8L381.2,243L510.4,4.6z M496.4,82.3L432,203.6
			l64.4-11.4V82.3z"/>
	</g>
	<g class="st0">
		<path class="st2" d="M43.1,444.7V499l-17.7,20.8l-9-7.4l7.5-8.9l6.5,5.4l2-2.5v-19.5l-8.8,10.4l-9.8-8.1v-34.8l-4.4-3.7l7.5-8.8
			l7.5,6.2v34.8l4.2,3.5l3.8-4.5v-35l5.4-6.4L43.1,444.7z"/>
		<path class="st2" d="M78.1,441v29.5l-19.5,23l-9.8-8.2v-29.5l19.5-23L78.1,441z M67.5,477.8v-30.5l-4.2-3.5l-6.6,7.9l2.7,2.3v25
			l4.2,3.4L67.5,477.8z"/>
		<path class="st2" d="M120.3,475l-7.5,8.9l-7.6-6.3v-1.3l-8.8,10.5l-9.8-8.2v-37.1l-4.5-3.6l7.6-8.9l7.5,6.3v37l4.2,3.5l3.8-4.6
			v-32.9l-4.4-3.6l7.5-8.9l7.6,6.3v39.4L120.3,475z"/>
		<path class="st2" d="M203.1,460.4l-7.5,8.9l-7.5-6.3v-37l-4.2-3.5l-3.9,4.7v27.5l-5.3,6.2l-5.4-4.3v-27.3l-4.1-3.5l-3.9,4.6v32.9
			l4.4,3.6l-7.5,8.9l-7.5-6.3v-33.3l-4.4-3.6l7.5-8.9l5.1,4.3l11.3-13.3l9.3,7.8l9.4-11.1l9.8,8.2v37.1L203.1,460.4z"/>
		<path class="st2" d="M241.3,453.7l-7.5,8.9l-7.6-6.3V455l-8.8,10.5l-9.8-8.2v-37.1l-4.5-3.6l7.6-8.9l7.5,6.3v37l4.2,3.5l3.8-4.6
			v-32.9l-4.4-3.6l7.5-8.9l7.6,6.3v39.4L241.3,453.7z"/>
		<path class="st2" d="M274.1,435.9l-19.4,23l-9.9-8.2v-2.9l10.7-11.3v7.8l4.1,3.5l5.7-6.7l-18.4-15.3v-7.1l17.4-20.6l8,7.1v2.1
			l-8.8,9.3v-3.9l-4.2-3.5l-5.6,6.7l20.4,16.1V435.9z"/>
		<path class="st2" d="M290.6,415.2v23l4.2,3.5l3.8-4.6v-5.7l10.7-12.5v10.8l-19.5,23l-9.9-8.2v-39.3l-2.2-1.9l7.6-8.8l7.5,6.2
			l-2.2,2.7v2.2l18.7-3.3l-9.6,11.3L290.6,415.2z"/>
		<path class="st2" d="M368,389.8v29.5l-19.5,23l-9.8-8.2v-58.9l-4.4-3.7l7.5-8.8l7.6,6.2v23.2l8.8-10.5L368,389.8z M360.1,423.5
			l-2.7-2.3v-24.8l-4.2-3.5l-3.8,4.6v30.4l4.1,3.4L360.1,423.5z"/>
		<path class="st2" d="M401.3,384v5.2l-18.7,22v10.9l4.2,3.4l3.9-4.6v-7.7l10.6-12.5v12.8l-19.5,23l-9.8-8.2v-29.5l19.5-23
			L401.3,384z M390.7,396.5v-6.2l-4.2-3.5l-6.6,7.9l2.7,2.3v9L390.7,396.5z"/>
		<path class="st2" d="M446.3,417.5l-7.6,8.9l-7.5-6.3V359l-4.4-3.7l7.5-8.8l7.6,6.2v61.3L446.3,417.5z"/>
		<path class="st2" d="M478.8,370.3v29.5l-19.5,23l-9.8-8.2v-29.5l19.5-23L478.8,370.3z M468.2,407.2v-30.5l-4.2-3.5l-6.6,7.9
			l2.7,2.3v25l4.2,3.4L468.2,407.2z"/>
		<path class="st2" d="M511.4,394.1l-19.4,23l-9.9-8.2V406l10.7-11.3v7.8l4.1,3.5l5.7-6.7l-18.4-15.3V377l17.4-20.6l8,7.1v2.1
			l-8.8,9.3v-3.9l-4.2-3.5l-5.6,6.7l20.4,16.1V394.1z"/>
		<path class="st2" d="M527.9,373.4v23l4.2,3.5l3.8-4.6v-5.7l10.7-12.5v10.8l-19.5,23l-9.9-8.2v-39.3l-2.2-1.9l7.6-8.8l7.5,6.2
			l-2.2,2.7v2.2l18.7-3.3l-9.6,11.3L527.9,373.4z"/>
		<path class="st2" d="M549.1,333.8l7.6-8.9l7.5,6.3V373l4.4,3.6l-7.5,8.9l-7.6-6.3v-41.8L549.1,333.8z M561,404.9l7.6-8.9l-7.6-6.3
			l-7.5,8.9L561,404.9z"/>
	</g>
</g>
</svg>
