<?xml version="1.0" encoding="utf-8"?>
<!-- Generator: Adobe Illustrator 21.0.0, SVG Export Plug-In . SVG Version: 6.00 Build 0)  -->
<svg version="1.1" id="Layer_1" xmlns="http://www.w3.org/2000/svg" xmlns:xlink="http://www.w3.org/1999/xlink" x="0px" y="0px"
	 viewBox="0 0 232.7 329.2" style="enable-background:new 0 0 232.7 329.2;" xml:space="preserve">
<style type="text/css">
	.st0{fill:url(#SVGID_1_);}
	.st1{fill:url(#SVGID_2_);}
	.st2{fill:url(#SVGID_3_);}
	.st3{fill:url(#SVGID_4_);}
</style>
<g>
	<g>
		
			<linearGradient id="SVGID_1_" gradientUnits="userSpaceOnUse" x1="0" y1="537.1" x2="177.7" y2="537.1" gradientTransform="matrix(1 0 0 1 0 -351)">
			<stop  offset="0" style="stop-color:#FF14FF"/>
			<stop  offset="1" style="stop-color:#FFFF41"/>
		</linearGradient>
		<path class="st0" d="M168.7,70.1v152c0,45.6-34.5,80-79.6,80c-23.2,0-43.3-7.6-57.7-22C16.9,265.7,8.9,246,8.9,222.9V219l66.8-26
			v28.1c0,8.2,3.2,15.7,13,15.7c6.4,0,11.8-5,11.8-14.8V70.1H168.7 M177.7,61.1h-9.3h-68.2h-8.7v9v152c0,1.3-0.4,5.8-2.9,5.8
			c-2.1,0-2.4-0.6-2.6-0.9c-0.8-1.1-1.1-3.2-1.1-5.8v-28.1V180l-12.4,4.7l-66.8,26L0,212.9v6.2v3.9c0,12.5,2,24.4,6.4,35.2
			c4.3,10.7,10.5,20.3,18.6,28.3c8,8,17.7,14.2,28.7,18.5c10.8,4.1,22.7,6.1,35.3,6.1c24.2,0,46.8-9.1,63.1-25.6
			c16.4-16.5,25.6-39,25.6-63.5V70L177.7,61.1L177.7,61.1z"/>
		
			<linearGradient id="SVGID_2_" gradientUnits="userSpaceOnUse" x1="4.4" y1="537.1" x2="173.2" y2="537.1" gradientTransform="matrix(1 0 0 1 0 -351)">
			<stop  offset="0" style="stop-color:#00EBFF"/>
			<stop  offset="1" style="stop-color:#00FFC0"/>
		</linearGradient>
		<path class="st1" d="M168.7,70.1v152c0,45.6-34.5,80-79.6,80c-23.2,0-43.3-7.6-57.7-22C16.9,265.7,8.9,246,8.9,222.9V219l66.8-26
			v28.1c0,8.2,3.2,15.7,13,15.7c6.4,0,11.8-5,11.8-14.8V70.1H168.7 M173.2,65.6h-4.8h-68.2H96v4.5v152c0,6.4-2.8,10.3-7.3,10.3
			c-2.1,0-8.5,0-8.5-11.2v-28.1v-6.6l-6.3,2.4l-66.7,26L4.4,216v3.1v3.9c0,23.9,8.1,44.9,23.7,60.4c15.3,15.2,36.3,23.2,60.8,23.2
			c23,0,44.4-8.6,59.9-24.2c15.5-15.7,24.2-37.1,24.2-60.3v-152L173.2,65.6L173.2,65.6z"/>
	</g>
	<g>
		
			<linearGradient id="SVGID_3_" gradientUnits="userSpaceOnUse" x1="69.4269" y1="577.7092" x2="275.5731" y2="458.6908" gradientTransform="matrix(1 0 0 1 0 -351)">
			<stop  offset="0" style="stop-color:#FF14FF"/>
			<stop  offset="1" style="stop-color:#FFFF41"/>
		</linearGradient>
		<polygon class="st2" points="152,234.4 112.2,234.4 137.2,194 137.2,194 170.6,139.9 133,139.9 216.4,5.2 192.9,100.1 
			232.7,100.1 174.3,194.6 212,194.6 128.6,329.2 		"/>
	</g>
	<g>
		
			<linearGradient id="SVGID_4_" gradientUnits="userSpaceOnUse" x1="64.2144" y1="572.4876" x2="270.2856" y2="453.5124" gradientTransform="matrix(1 0 0 1 0 -351)">
			<stop  offset="0" style="stop-color:#00EBFF"/>
			<stop  offset="1" style="stop-color:#00FFC0"/>
		</linearGradient>
		<polygon class="st3" points="146.8,229.1 106.9,229.1 131.9,188.8 131.9,188.8 165.4,134.6 127.8,134.6 211.1,0 187.6,94.9 
			227.5,94.9 169,189.4 206.7,189.4 123.4,324 		"/>
	</g>
</g>
</svg>
