<?xml version="1.0" encoding="utf-8"?>
<!-- Generator: Adobe Illustrator 19.2.1, SVG Export Plug-In . SVG Version: 6.00 Build 0)  -->
<svg version="1.1" id="Layer_1" xmlns="http://www.w3.org/2000/svg" xmlns:xlink="http://www.w3.org/1999/xlink" x="0px" y="0px"
	 viewBox="0 0 605 646.9" style="enable-background:new 0 0 605 646.9;" xml:space="preserve">
<style type="text/css">
	.st0{fill:#FFD900;}
	.st1{fill:#EDEDED;}
	.st2{fill:#19A2F6;}
	.st3{fill:#FF7373;}
	.st4{font-family:'KomikaTitle';}
	.st5{font-size:90px;}
	.st6{letter-spacing:4;}
	.st7{fill:#0095DC;}
</style>
<g>
	<path class="st0" d="M327,11.5c-14.1-12-34.8-12-49,0L2.5,244.4v400h600v-400L327,11.5z"/>
	<path class="st1" d="M574.8,523.4H30.2c-6.6,0-12-5.4-12-12V152c0-6.6,5.4-12,12-12h544.6c6.6,0,12,5.4,12,12v359.4
		C586.7,518.1,581.4,523.4,574.8,523.4z"/>
	<path class="st2" d="M2.5,644.4L278,411.5c14.1-12,34.8-12,49,0l275.5,232.9H2.5z"/>
</g>
<text transform="matrix(1 0 0 1 156.1179 315.0292)" class="st3 st4 st5 st6">Thanks!</text>
<path id="favorite-5" class="st3" d="M471.3,214.7c0.8-13,19.4-17.3,25.2-3.4c5.8,13.7-9.9,28.6-10.4,38.5
	c-7.5-6.6-29.1-5.6-34.9-19.3C445.4,216.7,461.4,206.3,471.3,214.7z"/>
<polygon class="st7" points="2.5,244.4 239.1,444.4 2.5,644.4 "/>
<polygon class="st7" points="602.5,644.4 365.9,444.4 602.5,244.4 "/>
</svg>
