<svg id="Layer_1" data-name="Layer 1" xmlns="http://www.w3.org/2000/svg" viewBox="0 0 151.34 183.96"><defs><style>.cls-1{fill:#0056ff;}</style></defs><title>hand</title><g id="A_OK" data-name="A OK"><path class="cls-1" d="M82.81,147.32,107.52,145l25-10.56q-5.93-8.91-14.72-8.91a20.58,20.58,0,0,0-6.75,1.15,26.39,26.39,0,0,0-6.64,3.47q-3.42-.76-9.89-2.69-4.29-1.18-9.12-2a61.56,61.56,0,0,1-3.07-17.78,179.7,179.7,0,0,0,20-18.22,80,80,0,0,0,21.3,10.32c-.07,1.46-.1,2.77-.1,3.94q0,13.17,12.52,16V95.25l-24.6-22.72L63.26,83.29,6.7,157.11a56.66,56.66,0,0,0,20.09,21.35L37.23,166.9a75.54,75.54,0,0,0,45.58-19.59m26.14-79.4,20.87-17q15.7-12.84,15.7-20.74a11.81,11.81,0,0,0-1.86-5.92L73.15,75.16ZM99.73,49.27l5.38-11.52Q111.47,24,111.48,16.9q0-5.71-5.28-9.21l-35.58,63ZM73.25,54.42q.66-7.68.67-11.08,0-12-2.75-17.34t-9.66-7.25c.37,5.56.54,10.07.54,13.5A366,366,0,0,1,59.31,79ZM28.12,184Q11.75,178.79,0,157.11L52.28,88.33a437.2,437.2,0,0,0,4.07-56.51,141,141,0,0,0-1-18.1c1.84-.14,3.11-.21,3.84-.21q17.14,0,19.66,21.72l1,7.79L104.11,0q12.75,5.71,12.75,16.68,0,8-4.61,18.21l-3.52,7.79,36-26.22q6.59,7,6.59,13.72,0,9.43-14.49,21.5L116,69.35,141.46,93v32.49q-21.42,0-23.39-21.85A126.24,126.24,0,0,1,103,96.46a95.22,95.22,0,0,1-14.94,13.27,63.14,63.14,0,0,0,1.32,10.86q5.5,1.32,13.84,3.84a40.45,40.45,0,0,1,7.9-3.23,26,26,0,0,1,6.92-1q14.72,0,22.73,16.83l-31.62,13.31-24.7,2.64Q65.68,169,39.1,172.73Z"/></g></svg>