<?xml version="1.0" encoding="utf-8"?>
<!-- Generator: Adobe Illustrator 21.1.0, SVG Export Plug-In . SVG Version: 6.00 Build 0)  -->
<svg version="1.1" id="Layer_1" xmlns="http://www.w3.org/2000/svg" xmlns:xlink="http://www.w3.org/1999/xlink" x="0px" y="0px"
	 viewBox="0 0 136.1 72" style="enable-background:new 0 0 136.1 72;" xml:space="preserve">
<style type="text/css">
	.st0{fill:#0056FF;}
</style>
<g>
	<g>
		<path class="st0" d="M118.2,42.5V17.8c0-3.9-3.2-7-7-7s-7,3.1-7,7v18.4l4.2,6.3H90.7V17.8c0-3.9-3.3-7-7-7c-3.9,0-7,3.1-7,7v18.4
			l4.2,6.3H58.9l4.2-6.3V9l-4.3-6.4h16l2,8.3c0,0,5-10.9,13.8-10.9c4.8,0,9.2,3.8,12.4,9.6c0,0,0,0,0,0c2.4-3.9,7.4-9.6,15.1-9.6
			c8,0,13.8,7.8,13.8,17.8v18.3l4.2,6.4H118.2z"/>
	</g>
	<g>
		<path class="st0" d="M49.3,10.8l5.5-8.2H26.3c1.8,2.8,3.9,5.5,5.5,8.2v35.7c0,7.1-2.9,11.9-8.9,11.9c-5,0-7.9-4.6-7.9-8.9
			c0-4.3,4.1-6.8,5.9-7.2c-0.6-2.5-3.8-4.9-7.9-4.9C5.2,37.5,0,43.6,0,51.9C0,63.4,10.1,72,24.5,72c16.9,0,24.9-11.3,24.9-25.5
			L49.3,10.8z"/>
	</g>
	<g>
		<polygon class="st0" points="107.8,47.1 88.4,56 58.9,51.7 89.1,65.1 108,55.9 136.1,60.1 		"/>
	</g>
</g>
</svg>
