<?xml version="1.0" encoding="utf-8"?>
<!-- Generator: Adobe Illustrator 22.0.1, SVG Export Plug-In . SVG Version: 6.00 Build 0)  -->
<svg version="1.1" id="Layer_1" xmlns="http://www.w3.org/2000/svg" xmlns:xlink="http://www.w3.org/1999/xlink" x="0px" y="0px"
	 viewBox="0 0 447.6 116" style="enable-background:new 0 0 447.6 116;" xml:space="preserve">
<style type="text/css">
	.st0{fill:#0056FF;}
</style>
<title>name</title>
<path class="st0" d="M135.7,6.5v26.7c0,7.2-5.1,12.5-12.4,12.5s-10.8-3.4-10.8-7.3c0-1.4,0.7-2.8,1.9-3.5c1.1,2,3.2,3.1,5.5,3
	c3,0,4.6-1.6,4.6-4.6V6.5c-1-1.7-2.3-3.4-3.5-5.2h18.2L135.7,6.5z"/>
<path class="st0" d="M199.3,22.9c0,12.5-10.2,22.7-22.7,22.7s-22.7-10.2-22.7-22.7S164,0.2,176.6,0.2c0,0,0,0,0,0
	C189.1,0.2,199.2,10.3,199.3,22.9z M188,22.9c0-7.6-5.2-13.7-11.5-13.7s-11.5,6.2-11.5,13.7s5.1,13.8,11.5,13.8S188,30.4,188,22.9
	L188,22.9z"/>
<path class="st0" d="M256,39.2l3.5,5.2h-18.2l3.5-5.2V26.8h-15v12.5l3.5,5.2h-18.2l3.5-5.2V6.5l-3.5-5.2h18.2l-3.5,5.2V19h15V6.5
	l-3.5-5.2h18.2L256,6.6V39.2z"/>
<path class="st0" d="M304.3,1.3h16l-3.5,5.2v38.8l-28.5-24.6v18.6l3.5,5.2h-16l3.5-5.2V6.5l-3.5-5.2h8.1l23.9,22.1V6.5L304.3,1.3z"
	/>
<path class="st0" d="M56.2,110.2l3.5,5.2H41.5l3.5-5.2v-20L27.3,108V91.1l-11,7.3v11.9l3.5,5.2H1.6l3.5-5.2V77.5l-3.5-5.2h14.7v17.2
	L34,71.8v17.8l11-8.8v-8.5h14.8l-3.5,5.3V110.2z"/>
<path class="st0" d="M87.2,108.6l4.5,6.9H75.1L90,77.7l-3.7-5.5H107l-3.7,5.5l14.9,37.8h-12.1l-2.7-6.9H87.2z M94.6,86.1L89.2,102
	h11.5L94.6,86.1z"/>
<path class="st0" d="M148.1,77.5v32.8l3.5,5.2h-18.2l3.5-5.2V77.5l-3.5-5.2h18.2L148.1,77.5z"/>
<path class="st0" d="M208.2,85.5l-5.1-4.3h-9.9v29l3.5,5.2h-18.2l3.5-5.2v-29h-9.9l-5.1,4.4V72.3h41.2L208.2,85.5z"/>
<path class="st0" d="M257.8,102.2v13.3h-34.1l3.5-5.2V77.5l-3.5-5.2H242l-3.5,5.2v29h14.3L257.8,102.2z"/>
<path class="st0" d="M284.5,108.6l4.5,6.9h-16.7l14.9-37.8l-3.7-5.5h20.7l-3.7,5.5l14.9,37.8h-12.1l-2.7-6.9H284.5z M291.8,86.1
	l-5.4,15.9H298L291.8,86.1z"/>
<path class="st0" d="M359.1,72.3h16l-3.5,5.2v38.8l-28.5-24.7v18.6l3.5,5.2h-16l3.5-5.2V77.5l-3.5-5.2h8.1l23.9,22.1V77.5
	L359.1,72.3z"/>
<path class="st0" d="M432,93.9c0.1,11.9-9.5,21.6-21.4,21.6c-0.1,0-0.1,0-0.2,0H391l3.5-5.2V77.5l-3.5-5.2h19.3
	c11.9-0.1,21.6,9.6,21.7,21.5C432,93.8,432,93.8,432,93.9z M420.9,93.9c0-6.9-4.6-12.6-10.4-12.6h-4.7v25.3h4.7
	C416.2,106.5,420.8,100.8,420.9,93.9L420.9,93.9z"/>
</svg>
