<svg id="Layer_1" data-name="Layer 1" xmlns="http://www.w3.org/2000/svg" viewBox="0 0 447.58 116"><defs><style>.cls-1{fill:#9b7c46;}</style></defs><title>name</title><path class="cls-1" d="M135.67,6.49V33.17c0,7.25-5.15,12.48-12.4,12.48s-10.76-3.43-10.76-7.33a4,4,0,0,1,1.87-3.51,5.8,5.8,0,0,0,5.46,3c3,0,4.6-1.56,4.6-4.6V6.49c-1-1.72-2.34-3.43-3.51-5.23h18.25Z"/><path class="cls-1" d="M199.27,22.87A22.7,22.7,0,1,1,176.57.17,22.74,22.74,0,0,1,199.27,22.87Zm-11.23,0c0-7.57-5.23-13.73-11.47-13.73S165.1,15.3,165.1,22.87s5.15,13.81,11.47,13.81S188,30.44,188,22.87Z"/><path class="cls-1" d="M256,39.25l3.51,5.23H241.28l3.51-5.23V26.77h-15V39.25l3.51,5.23H215.07l3.51-5.23V6.49l-3.51-5.23h18.25l-3.51,5.23V19h15V6.49l-3.51-5.23h18.25L256,6.57Z"/><path class="cls-1" d="M304.27,1.26h16l-3.51,5.23V45.26L288.28,20.61V39.25l3.51,5.23h-16l3.51-5.23V6.49L275.8,1.26h8.11l23.87,22.07V6.49Z"/><path class="cls-1" d="M56.24,110.25l3.51,5.23H41.5L45,110.25v-20L27.3,108V91.06l-11,7.33v11.86l3.51,5.23H1.56l3.51-5.23V77.49L1.56,72.26H16.3V89.5L34,71.8V89.58l11-8.81v-8.5H59.75l-3.51,5.3Z"/><path class="cls-1" d="M87.22,108.61l4.52,6.86H75.05l14.9-37.75-3.67-5.46H107l-3.67,5.46,14.9,37.75H106.1l-2.73-6.86Zm7.33-22.54L89.17,102h11.54Z"/><path class="cls-1" d="M148.1,77.49v32.76l3.51,5.23H133.36l3.51-5.23V77.49l-3.51-5.23h18.25Z"/><path class="cls-1" d="M208.23,85.52l-5.07-4.29h-9.91v29l3.51,5.23H178.51l3.51-5.23v-29h-9.91L167,85.6V72.26h41.19Z"/><path class="cls-1" d="M257.84,102.22v13.26H223.75l3.51-5.23V77.49l-3.51-5.23H242l-3.51,5.23v29h14.27Z"/><path class="cls-1" d="M284.52,108.61l4.52,6.86H272.35l14.9-37.75-3.67-5.46h20.67l-3.67,5.46,14.9,37.75H303.39l-2.73-6.86Zm7.33-22.54L286.47,102H298Z"/><path class="cls-1" d="M359.12,72.26h16l-3.51,5.23v38.77L343.13,91.61v18.64l3.51,5.23h-16l3.51-5.23V77.49l-3.51-5.23h8.11l23.87,22.07V77.49Z"/><path class="cls-1" d="M432,93.87a21.51,21.51,0,0,1-21.61,21.61H391l3.51-5.23V77.49L391,72.26h19.34A21.56,21.56,0,0,1,432,93.87Zm-11.15,0c0-6.94-4.6-12.64-10.37-12.64h-4.68v25.27h4.68C416.23,106.51,420.83,100.81,420.83,93.87Z"/></svg>