<?xml version="1.0" encoding="utf-8"?>
<!-- Generator: Adobe Illustrator 20.0.0, SVG Export Plug-In . SVG Version: 6.00 Build 0)  -->
<svg version="1.1" id="Layer_1" xmlns="http://www.w3.org/2000/svg" xmlns:xlink="http://www.w3.org/1999/xlink" x="0px" y="0px"
	 viewBox="0 0 605 646.9" style="enable-background:new 0 0 605 646.9;" xml:space="preserve">
<style type="text/css">
	.st0{fill:#FFD900;}
	.st1{fill:#EDEDED;}
	.st2{fill:#19A2F6;}
	.st3{enable-background:new    ;}
	.st4{fill:#FF7373;}
	.st5{fill:#0095DC;}
</style>
<g>
	<path class="st0" d="M327,11.5c-14.1-12-34.8-12-49,0L2.5,244.4v400h600v-400L327,11.5z"/>
	<path class="st1" d="M574.8,523.4H30.2c-6.6,0-12-5.4-12-12V152c0-6.6,5.4-12,12-12h544.6c6.6,0,12,5.4,12,12v359.4
		C586.7,518.1,581.4,523.4,574.8,523.4z"/>
	<path class="st2" d="M2.5,644.4L278,411.5c14.1-12,34.8-12,49,0l275.5,232.9H2.5z"/>
</g>
<g class="st3">
	<path class="st4" d="M188,258.6c-1.7,0.2-3.3,0.4-5.1,0.7c-0.7,4.3-1.5,8.7-2.3,13.5c-0.8,4.7-1.6,9.5-2.3,14.3
		c-0.8,4.8-1.5,9.6-2.2,14.4c-0.7,4.7-1.3,9.2-1.8,13.5c-0.1,0.8-0.2,1.4-0.5,1.7c-0.3,0.3-0.7,0.4-1.2,0.4
		c-0.5-0.1-1.1-0.2-1.8-0.5c-0.7-0.3-1.5-0.6-2.3-1c-1.7-0.7-3-1.6-4-2.7c-1-1.1-1.3-2.8-0.9-5c0.2-2.8,0.5-6.1,0.9-10
		c0.4-3.9,0.9-7.9,1.4-12.1c0.5-4.2,1.1-8.4,1.8-12.6c0.6-4.2,1.2-8,1.8-11.4c-1,0.2-2,0.5-3,0.6s-1.8,0.4-2.5,0.6
		c-0.9,0.3-1.6,0.3-2.2,0.1c-0.6-0.2-1.2-0.8-1.8-1.8c-0.7-1-1.4-2.3-1.9-3.9c-0.6-1.6-1-2.8-1.4-3.9c-0.4-1.1-0.4-1.8-0.2-2.2
		c0.2-0.4,0.7-0.7,1.4-0.9c2-0.5,4.4-1,7-1.5c2.6-0.5,5.3-0.9,8-1.3c2.7-0.4,5.4-0.7,8-0.9c2.6-0.2,4.9-0.4,7-0.5
		c1,0,1.8,0.1,2.3,0.4c0.5,0.3,0.9,0.7,1.3,1.3c0.7,1.1,1.3,2.3,1.8,3.5c0.5,1.3,0.9,2.5,1.2,3.7c0.2,1.1,0.3,1.9,0.1,2.3
		c-0.2,0.4-0.8,0.6-1.9,0.8C191.2,258.1,189.7,258.3,188,258.6z"/>
	<path class="st4" d="M236.1,268c-0.8,4.8-1.7,9.8-2.6,15.1c-0.9,5.3-1.7,10.6-2.5,16c-0.8,5.4-1.5,10.5-2.2,15.4
		c0,0.8-0.2,1.4-0.5,1.7c-0.3,0.3-0.7,0.4-1.2,0.4c-0.5-0.1-1.1-0.2-1.8-0.5c-0.7-0.3-1.5-0.6-2.3-0.9c-1.6-0.7-2.9-1.6-3.8-2.7
		c-0.9-1-1.2-2.7-0.9-4.8c0.1-2.1,0.3-4.5,0.6-7.2c0.3-2.7,0.7-5.7,1.1-9c-1.6,0.4-3.1,0.7-4.7,1c-1.6,0.3-3.2,0.6-4.7,1
		c-0.7,4-1.2,7.7-1.7,11.3c-0.4,3.5-0.9,6.8-1.3,9.6c-0.2,1-0.5,1.7-0.8,2c-0.4,0.3-1.1,0.3-2.1-0.1c-1-0.4-2-0.8-3-1.3
		c-1.1-0.4-1.9-1-2.7-1.6c-0.9-0.7-1.5-1.4-1.9-2.3c-0.4-0.9-0.4-2.1-0.1-3.6c0.7-4,1.4-8.4,2.1-13.5c0.7-5,1.3-10.1,1.9-15.4
		c0.6-5.2,1.2-10.4,1.8-15.5c0.6-5.1,1.2-9.6,1.7-13.6c0.3-1.5,0.7-2.4,1.3-2.6c0.5-0.2,1.3-0.1,2.3,0.4c1.1,0.4,2.3,1,3.5,1.7
		c1.3,0.7,2.4,1.5,3.3,2.3c1,0.8,1.6,1.6,1.8,2.3c0.2,0.7,0.2,1.7,0,2.9c-0.6,2.8-1.2,6.1-1.9,10c-0.7,3.9-1.4,8.1-2.2,12.6
		c1.6-0.2,3.1-0.4,4.6-0.6c1.5-0.2,3-0.3,4.4-0.5c0.8-5.5,1.6-10.8,2.4-15.9c0.8-5.2,1.5-9.7,2.3-13.7c0.3-1.5,0.7-2.4,1.3-2.6
		c0.6-0.2,1.4-0.1,2.5,0.3c1,0.4,2.1,0.9,3.2,1.6c1.1,0.7,2.2,1.5,3.2,2.3c1,0.8,1.5,1.6,1.8,2.3c0.2,0.7,0.2,1.6,0,2.8
		C237.7,259,237,263.3,236.1,268z"/>
	<path class="st4" d="M260.7,300.1c-2.9,0.6-5.5,1.3-7.7,2.2c-0.8,2.3-1.6,4.4-2.2,6.4c-0.6,2-1.2,4-1.8,5.9c-0.4,1-0.8,1.6-1.2,1.8
		c-0.5,0.2-1.1,0-2-0.4c-0.5-0.3-1-0.6-1.7-1s-1.2-0.8-1.8-1.3c-0.6-0.5-1.1-1-1.5-1.6c-0.4-0.6-0.7-1.3-0.7-2
		c-0.1-0.7,0.1-1.9,0.5-3.7c1.1-4,2.4-8.4,4-13.5s3.3-10.1,5-15.3c1.7-5.2,3.5-10.2,5.3-15.1c1.8-4.9,3.4-9.1,5-12.7
		c0.5-1.3,1.2-2.3,2.1-3.1c0.8-0.8,2.1-1.1,3.7-0.9c2.8,0.2,5.1,0.6,6.8,1.2c1.7,0.6,3.4,1.2,5,1.8c1.1,0.5,1.9,1.2,2.2,2
		c0.3,0.9,0.5,2,0.4,3.4c-0.1,3.4-0.1,7.5,0,12.3c0,4.8,0.1,9.8,0.3,15.2c0.1,5.3,0.3,10.8,0.5,16.3c0.2,5.5,0.4,10.8,0.7,15.9
		c0.1,1.1-0.1,1.8-0.4,2.3c-0.3,0.4-1,0.6-2,0.6c-1,0-2,0-2.9-0.1c-0.9-0.1-1.8-0.4-2.8-0.9c-1-0.4-1.6-1-2-1.6
		c-0.4-0.7-0.7-1.8-0.9-3.5c-0.2-1.7-0.4-3.6-0.5-5.7c-0.2-2-0.3-4.2-0.5-6.6C266.5,298.9,263.6,299.5,260.7,300.1z M268.6,285
		c-0.1-4.3-0.2-8.6-0.4-12.8c-0.1-4.2-0.2-8.3-0.2-12.2c-1.4,3.6-2.9,7.7-4.6,12.2c-1.7,4.6-3.4,9.4-5.2,14.4
		C261.7,285.9,265.1,285.3,268.6,285z"/>
	<path class="st4" d="M317.4,266.8c1-6.4,1.9-12.1,2.8-17.2c0.2-1.3,0.6-2.1,1.2-2.5c0.6-0.3,1.4-0.3,2.5,0c1.1,0.4,2,0.7,2.7,1.1
		c0.7,0.4,1.7,1.1,3,2.1c1,0.8,1.6,1.7,1.8,2.6c0.2,0.9,0.1,1.9-0.1,3.2c-0.7,3.7-1.4,7.9-2.1,12.8c-0.8,4.9-1.5,9.9-2.2,15.2
		c-0.7,5.2-1.4,10.4-2.1,15.5c-0.7,5.1-1.3,9.8-1.8,13.9c-0.2,2.3-1.3,3.1-3.5,2.3c-1-0.3-1.9-0.6-2.8-1c-0.9-0.4-1.9-0.8-2.8-1.3
		c-1.7-1-3-2.8-3.7-5.4c-0.5-1.8-1.1-3.9-1.7-6.2c-0.6-2.3-1.1-4.8-1.7-7.5c-0.5-2.7-1.1-5.4-1.6-8.2s-1.1-5.6-1.5-8.5
		c-0.5,3.4-1,6.8-1.5,10.2c-0.5,3.5-1,6.8-1.4,9.9c-0.5,3.2-0.9,6.2-1.3,9c-0.4,2.8-0.7,5.3-0.9,7.5c-0.1,1-0.4,1.7-0.8,1.9
		c-0.4,0.3-1.1,0.2-2.1-0.2c-1-0.4-1.9-0.7-2.9-1.1c-1-0.4-1.9-1-2.7-1.8c-0.8-0.7-1.4-1.4-1.7-2.3c-0.3-0.9-0.3-2.1-0.1-3.6
		c0.1-1.6,0.3-3.7,0.6-6.4c0.3-2.7,0.6-5.8,1-9.2c0.4-3.4,0.8-7,1.4-10.8c0.5-3.8,1-7.6,1.5-11.3c0.5-3.7,1-7.3,1.6-10.7
		c0.5-3.4,1-6.3,1.5-8.8c0.3-1.4,0.8-2.3,1.4-2.6c0.7-0.4,1.5-0.4,2.5,0c1.3,0.5,2.5,1,3.7,1.5c1.2,0.5,2.5,1.2,3.8,2.1
		c1.1,0.6,1.8,1.4,2.3,2.3c0.4,0.9,0.8,2.3,1,4.1c0.2,1.4,0.4,3.2,0.7,5.4c0.3,2.3,0.6,4.7,1,7.4c0.4,2.7,0.8,5.5,1.2,8.4
		c0.4,2.9,0.8,5.7,1.3,8.4C315.5,279.9,316.4,273.2,317.4,266.8z"/>
	<path class="st4" d="M357.5,288.7c0.8,1.8,1.7,3.7,2.6,5.7c1,2,1.9,3.9,2.8,5.7s1.8,3.5,2.6,5.1c0.8,1.6,1.6,2.9,2.3,4
		c0.7,1,0.9,1.8,0.8,2.5c-0.1,0.6-0.6,1.2-1.4,1.8c-0.5,0.4-1.1,0.8-1.8,1.1c-0.7,0.3-1.4,0.5-2.1,0.6c-1,0.4-2.1,0.5-3.2,0.3
		c-1.1-0.2-2.2-1.2-3.2-3c-0.4-0.7-1-1.7-1.8-3c-0.8-1.3-1.6-2.7-2.5-4.2c-0.9-1.6-1.8-3.2-2.7-5c-0.9-1.8-1.8-3.5-2.6-5.3
		c-0.5,3.7-1,7.2-1.5,10.5c-0.5,3.3-0.9,6.3-1.3,9c0,0.9-0.2,1.5-0.4,1.9c-0.3,0.4-0.7,0.5-1.2,0.5c-0.5-0.1-1.1-0.3-1.8-0.6
		c-0.7-0.3-1.5-0.7-2.4-1c-1.7-0.7-3-1.6-3.8-2.7c-0.8-1.1-1.1-2.7-0.9-5c0.1-2,0.3-4.6,0.7-7.7c0.3-3.1,0.7-6.4,1.2-10.1
		c0.5-3.6,0.9-7.4,1.4-11.3c0.5-3.9,1-7.7,1.5-11.4c0.5-3.7,1-7.1,1.5-10.4c0.5-3.2,1-5.9,1.4-8.1c0.3-1.3,0.7-2.1,1.3-2.4
		c0.6-0.3,1.4-0.2,2.4,0.2c1.1,0.4,2.3,0.9,3.5,1.7c1.3,0.8,2.4,1.5,3.3,2.4c1,0.9,1.6,1.7,1.9,2.3c0.2,0.6,0.2,1.6-0.1,2.8
		c-0.5,2.5-1.1,5.3-1.7,8.6c-0.6,3.3-1.2,6.9-1.8,10.8c1.6-2.3,3.2-4.8,5-7.4c1.8-2.6,3.5-5.1,5.1-7.7c1.6-2.5,3.1-4.9,4.5-7.1
		c1.4-2.2,2.5-4,3.4-5.5c0.5-1,1.1-1.5,1.6-1.5c0.7,0,1.3,0.4,2.1,1.3c0.8,0.8,1.5,1.8,2,2.9c0.6,1.1,1.1,2.3,1.6,3.5
		c0.4,1,0.5,2,0.5,3.1c-0.1,1-0.4,2.3-1,3.8c-0.8,1.9-1.8,4-3.2,6.4c-1.3,2.3-2.8,4.8-4.4,7.3c-1.6,2.5-3.3,5.1-5.1,7.6
		C360.8,284.1,359.2,286.5,357.5,288.7z"/>
	<path class="st4" d="M381.8,296.1c1.6,0.2,3,0.8,4.2,1.8c3.2,3.1,6.1,5,8.5,5.9c2.5,0.9,4.2,0.6,5.3-0.7c0.7-0.7,0.6-1.6-0.2-2.7
		c-0.8-1.2-2-2.5-3.6-4c-1.6-1.5-3.3-3.1-5.1-4.8c-1.9-1.7-3.5-3.4-4.9-5.1c-2-2.4-3.5-5.4-4.4-8.9c-0.9-3.5-0.8-7.3,0.3-11.5
		c0.4-1.8,0.9-3.6,1.8-5.5c0.8-1.9,1.8-3.7,2.8-5.5c1.1-1.8,2.3-3.5,3.6-5c1.3-1.6,2.6-2.8,3.8-3.9c0.4-0.4,1-0.8,1.6-1.2
		c0.7-0.4,1.4-0.7,2.3-0.9c0.8-0.2,1.7-0.2,2.7-0.2c1,0.1,1.9,0.3,3,0.7c1.6,0.7,3.2,1.6,4.8,2.7c1.6,1.1,3,2.3,4.1,3.6
		c1.5,1.7,2.4,3.5,2.7,5.3c0.3,1.8,0.4,3.5,0.5,4.9c-0.1,1.3-0.2,2.7-0.4,4.4c-0.2,1.7-0.5,3.4-0.7,5.1c-0.3,1.7-0.6,3.4-0.9,5
		c-0.3,1.6-0.7,3-1,4.1c-0.4,1-0.9,1.7-1.3,2c-0.5,0.3-1.2,0.2-2.1-0.4c-5.2-2.5-7.6-6-7.2-10.3c0.1-0.9,0.2-1.9,0.4-3.1
		c0.2-1.2,0.4-2.3,0.5-3.5c0.2-1.1,0.3-2.2,0.5-3.2c0.1-1,0.1-1.8,0.1-2.5c-0.1-0.6-0.2-1-0.5-1.1c-0.3-0.1-0.8,0.2-1.4,0.8
		c-0.9,0.7-1.9,1.8-3.1,3.5c-1.1,1.7-2.1,3.5-2.8,5.5c-0.7,2-1.1,4.1-1.2,6.3c-0.1,2.1,0.5,4,1.8,5.7c1.7,2.2,3.6,4.3,5.8,6.2
		c2.2,1.9,4.2,3.8,5.9,5.7c1.8,1.9,3.1,3.9,4,5.9c0.9,2.1,1,4.4,0.1,7c-0.4,1.3-0.9,2.6-1.6,4c-0.7,1.4-1.6,2.8-2.7,4
		c-1.1,1.3-2.6,2.3-4.3,3.2c-1.7,0.8-3.8,1.3-6.2,1.3c-3.2,0.1-6.4-0.8-9.4-2.6c-3-1.9-6.1-5-9.1-9.5c-1.7-2.2-2.5-3.9-2.5-5
		s0.4-1.9,1.2-2.5C378.6,296.3,380.1,295.9,381.8,296.1z"/>
	<path class="st4" d="M419.8,305.8c0.4-1.1,1-2,1.7-2.7c0.7-0.7,1.5-1.2,2.5-1.4c1-0.2,2.1-0.1,3.4,0.5c1.1,0.4,1.9,1,2.6,1.8
		c0.7,0.8,1.2,1.7,1.5,2.6c0.3,0.9,0.5,1.9,0.5,2.8c0,1,0,1.8-0.2,2.5c-0.1,0.5-0.3,1.2-0.7,1.9c-0.3,0.8-0.8,1.5-1.3,2.1
		c-0.5,0.7-1.1,1.2-1.8,1.7c-0.7,0.4-1.5,0.7-2.4,0.7c-1.9,0.1-3.4-0.7-4.7-2.3c-1.3-1.6-1.9-3.8-1.8-6.7
		C419.2,308.1,419.4,306.9,419.8,305.8z M441.9,249.1c0.2,0.9,0.2,1.9-0.1,3.2c-0.8,3.7-1.7,7.4-2.5,11.3c-0.8,3.9-1.7,7.7-2.5,11.6
		c-0.8,3.9-1.6,7.7-2.3,11.4c-0.7,3.7-1.4,7.2-1.9,10.5c-0.2,1.2-0.5,1.9-0.9,2.2c-0.4,0.3-1.1,0.3-2,0c-2-0.5-3.9-1.4-5.6-2.7
		c-0.9-0.7-1.5-1.4-1.8-2.3c-0.3-0.8-0.3-2,0-3.6c0.4-3.1,0.8-6.7,1.4-10.8c0.6-4.1,1.2-8.2,1.9-12.3c0.7-4.2,1.3-8.2,2.1-12.2
		c0.7-4,1.4-7.4,2-10.4c0.3-1.4,0.7-2.2,1.2-2.6c0.5-0.3,1.3-0.3,2.5,0.2c1,0.4,2.1,0.9,3.4,1.6c1.2,0.7,2.3,1.5,3.3,2.3
		C441,247.4,441.6,248.2,441.9,249.1z"/>
</g>
<path id="favorite-5" class="st4" d="M471.3,214.7c0.8-13,19.4-17.3,25.2-3.4c5.8,13.7-9.9,28.6-10.4,38.5
	c-7.5-6.6-29.1-5.6-34.9-19.3C445.4,216.7,461.4,206.3,471.3,214.7z"/>
<polygon class="st5" points="2.5,244.4 239.1,444.4 2.5,644.4 "/>
<polygon class="st5" points="602.5,644.4 365.9,444.4 602.5,244.4 "/>
</svg>
